<?xml version="1.0" encoding="UTF-8" standalone="no"?>
<!-- Created with Inkscape (http://www.inkscape.org/) -->

<svg
   xmlns:dc="http://purl.org/dc/elements/1.1/"
   xmlns:cc="http://creativecommons.org/ns#"
   xmlns:rdf="http://www.w3.org/1999/02/22-rdf-syntax-ns#"
   xmlns:svg="http://www.w3.org/2000/svg"
   xmlns="http://www.w3.org/2000/svg"
   xmlns:sodipodi="http://sodipodi.sourceforge.net/DTD/sodipodi-0.dtd"
   xmlns:inkscape="http://www.inkscape.org/namespaces/inkscape"
   width="1000px"
   height="1000px"
   viewBox="0 0 1000 1000"
   version="1.1"
   id="SVGRoot"
   inkscape:export-filename="C:\Users\Greg\Documents\Greg's Docs\ShamiWorks\shamiworks-avatar-white.png"
   inkscape:export-xdpi="95.999992"
   inkscape:export-ydpi="95.999992"
   sodipodi:docname="ShamiWorks logo.svg"
   inkscape:version="0.92.4 (5da689c313, 2019-01-14)">
  <defs
     id="defs10" />
  <sodipodi:namedview
     id="base"
     pagecolor="#ffffff"
     bordercolor="#666666"
     borderopacity="1.0"
     inkscape:pageopacity="0.0"
     inkscape:pageshadow="2"
     inkscape:zoom="0.256"
     inkscape:cx="1521.4844"
     inkscape:cy="803.83495"
     inkscape:document-units="px"
     inkscape:current-layer="layer3"
     showgrid="false"
     inkscape:window-width="1920"
     inkscape:window-height="1017"
     inkscape:window-x="-8"
     inkscape:window-y="-8"
     inkscape:window-maximized="1"
     showguides="true"
     inkscape:guide-bbox="true"
     inkscape:snap-grids="true">
    <inkscape:grid
       type="xygrid"
       id="grid23" />
  </sodipodi:namedview>
  <metadata
     id="metadata13">
    <rdf:RDF>
      <cc:Work
         rdf:about="">
        <dc:format>image/svg+xml</dc:format>
        <dc:type
           rdf:resource="http://purl.org/dc/dcmitype/StillImage" />
        <dc:title></dc:title>
      </cc:Work>
    </rdf:RDF>
  </metadata>
  <g
     inkscape:label="Layer 1"
     inkscape:groupmode="layer"
     id="layer1" />
  <g
     inkscape:groupmode="layer"
     id="layer2"
     inkscape:label="Layer 2" />
  <g
     inkscape:groupmode="layer"
     id="layer3"
     inkscape:label="Layer 3">
    <path
       style="fill:#000000;stroke-width:2.79411793"
       d="m 80.882364,80.882364 c 0,0 139.705886,-55.882354 419.117656,-55.882354 279.41178,0 419.11766,55.882354 419.11766,55.882354 0,0 55.88236,139.705886 55.88236,419.056666 0,279.35079 -55.88236,419.17865 -55.88236,419.17865 0,0 -139.70588,55.88236 -419.47709,55.88236 -279.77121,0 -418.758226,-55.88236 -418.758226,-55.88236 0,0 -55.882354,-139.82786 -55.882354,-419.17865 0,-279.35078 55.882354,-419.056666 55.882354,-419.056666 z"
       id="rect25"
       inkscape:connector-curvature="0"
       sodipodi:nodetypes="czczczczc" />
    <path
       sodipodi:nodetypes="czczczczc"
       inkscape:connector-curvature="0"
       id="path23"
       d="m 122.314,117.44004 c 0,0 125.89601,-51.007995 377.68602,-51.007995 251.79001,0 377.68602,51.007995 377.68602,51.007995 0,0 50.35801,127.52 50.35801,382.50431 0,254.98431 -50.35801,382.61566 -50.35801,382.61566 0,0 -125.89601,51.00799 -378.01001,51.00799 -252.11402,0 -377.36203,-51.00799 -377.36203,-51.00799 0,0 -50.358008,-127.63135 -50.358008,-382.61566 0,-254.98431 50.358008,-382.50432 50.358008,-382.50431 z"
       style="fill:#ffffff;stroke-width:2.53410006" />
    <text
       xml:space="preserve"
       style="font-style:normal;font-weight:normal;font-size:871.98071289px;line-height:1.25;font-family:sans-serif;letter-spacing:0px;word-spacing:0px;fill:#000000;fill-opacity:1;stroke:none;stroke-width:9.0831337"
       x="66.240768"
       y="804.39294"
       id="text46"
       transform="scale(0.98444769,1.015798)"><tspan
         sodipodi:role="line"
         id="tspan44"
         x="66.240768"
         y="804.39294"
         style="font-style:normal;font-variant:normal;font-weight:normal;font-stretch:normal;font-family:Stick;-inkscape-font-specification:Stick;fill:#000000;stroke-width:9.0831337">三</tspan></text>
  </g>
</svg>
